<svg id="visual" viewBox="0 0 900 600" width="900" height="600" xmlns="http://www.w3.org/2000/svg" xmlns:xlink="http://www.w3.org/1999/xlink" version="1.1"><path d="M0 207L21.5 195.2C43 183.3 86 159.7 128.8 162C171.7 164.3 214.3 192.7 257.2 187.8C300 183 343 145 385.8 141C428.7 137 471.3 167 514.2 185.7C557 204.3 600 211.7 642.8 196C685.7 180.3 728.3 141.7 771.2 139.3C814 137 857 171 878.5 188L900 205L900 0L878.5 0C857 0 814 0 771.2 0C728.3 0 685.7 0 642.8 0C600 0 557 0 514.2 0C471.3 0 428.7 0 385.8 0C343 0 300 0 257.2 0C214.3 0 171.7 0 128.8 0C86 0 43 0 21.5 0L0 0Z" fill="#00a2ce" stroke-linecap="round" stroke-linejoin="miter"></path></svg>